<?xml version="1.0" encoding="UTF-8"?>
<svg id="Layer_1" data-name="Layer 1" xmlns="http://www.w3.org/2000/svg" xmlns:xlink="http://www.w3.org/1999/xlink" viewBox="0 0 162.91 127.27">
  <defs>
    <style>
      .cls-1 {
        fill: #fff;
        stroke-width: 0px;
      }
    </style>
    <symbol id="iso" viewBox="0 0 162.91 127.27">
      <path class="cls-1" d="m150.17,85.91c7.72-5.54,12.74-14.6,12.74-24.82,0-16.87-13.68-30.55-30.55-30.55-2.13,0-4.21.22-6.22.63C121.85,13.29,105.75,0,86.55,0c-16.42,0-30.56,9.71-37.01,23.71-4.17-2.14-8.9-3.34-13.9-3.34-16.87,0-30.55,13.68-30.55,30.55,0,7.04,2.38,13.52,6.39,18.69-6.91,4.55-11.48,12.38-11.48,21.27,0,14.06,11.4,25.45,25.45,25.45v.76c0,5.62,4.56,10.18,10.18,10.18h86.55c4.13,0,7.68-2.45,9.28-5.99,1.9.58,3.91.9,6,.9,11.25,0,20.36-9.12,20.36-20.36,0-6.44-2.99-12.17-7.65-15.91Zm-99.26,22.78c-5.62,0-10.18-4.56-10.18-10.18s4.56-10.18,10.18-10.18,10.18,4.56,10.18,10.18-4.58,10.18-10.18,10.18Zm0-27.24c-5.76,0-11.41-1.99-15.91-5.59l6.36-7.95c2.74,2.19,6.04,3.35,9.55,3.35s6.8-1.16,9.54-3.35l6.36,7.95c-4.5,3.6-10.15,5.59-15.91,5.59Zm66.18,17.05c0,5.62-4.56,10.18-10.18,10.18s-10.18-4.56-10.18-10.18v-15.27c0-5.62,4.56-10.18,10.18-10.18s10.18,4.56,10.18,10.18v15.27Zm-.64-34.07c-2.74-2.19-6.04-3.35-9.54-3.35s-6.81,1.16-9.55,3.35l-6.36-7.95c4.5-3.6,10.15-5.58,15.91-5.58s11.41,1.98,15.91,5.58l-6.36,7.95Z"/>
    </symbol>
  </defs>
  <use width="162.91" height="127.27" xlink:href="#iso"/>
</svg>