<?xml version="1.0" encoding="UTF-8"?>
<svg id="Layer_1" data-name="Layer 1" xmlns="http://www.w3.org/2000/svg" xmlns:xlink="http://www.w3.org/1999/xlink" viewBox="0 0 280 231.64">
  <defs>
    <style>
      .cls-1 {
        fill: #fff;
        stroke-width: 0px;
      }
    </style>
    <symbol id="logo" viewBox="0 0 280 231.64">
      <g>
        <g>
          <path class="cls-1" d="m198.55,165.45c-14.06,0-25.45,11.4-25.45,25.45s11.4,25.45,25.45,25.45c3.62,0,7.06-.76,10.18-2.12v17.39h15.27v-40.72h0c0-14.06-11.4-25.46-25.45-25.46Zm0,35.64c-5.62,0-10.18-4.56-10.18-10.18s4.56-10.18,10.18-10.18,10.18,4.56,10.18,10.18-4.58,10.18-10.18,10.18Z"/>
          <path class="cls-1" d="m61.09,165.45h10.18v15.27h-10.18c-2.81,0-5.09,2.28-5.09,5.09v30.55h-15.27v-30.55c0-1.76.22-3.46.64-5.09,2.26-8.78,10.24-15.27,19.72-15.27Z"/>
          <path class="cls-1" d="m167.36,180.73c.42,1.63.64,3.33.64,5.09v30.55h-15.27v-30.55c0-2.81-2.28-5.09-5.09-5.09h-5.09c-2.81,0-5.09,2.28-5.09,5.09v30.55h-15.27v-30.55c0-1.76.22-3.46.64-5.09,1.84-7.15,7.48-12.78,14.63-14.63,1.63-.42,3.33-.64,5.09-.64h5.09c1.76,0,3.46.22,5.09.64,7.16,1.84,12.79,7.48,14.63,14.63Z"/>
          <path class="cls-1" d="m30.55,150.18h5.09v15.27h-5.09c-2.81,0-5.09,2.28-5.09,5.09v10.18h10.18v15.27h-10.18v20.36h-15.27v-20.36H0v-15.27h10.18v-10.18c0-11.25,9.12-20.36,20.36-20.36Z"/>
          <path class="cls-1" d="m101.84,166.12c-3.26-.84-3.18-.64-25.45-.64v15.27h21.04c2.49.36,4.41,2.5,4.41,5.09v5.09h-17.82c-4.22,0-7.64,3.42-7.64,7.64,0,11.35-.15,11.09.44,12.73,1.05,2.97,3.87,5.09,7.2,5.09,7.41,0,12.09.59,17.82-2.73v2.73h15.27v-30.55c0-9.52-6.52-17.47-15.27-19.72Zm0,40.09h-10.18v-5.09h10.18v5.09Z"/>
          <path class="cls-1" d="m254.55,150.18c-14.06,0-25.45,11.4-25.45,25.45v15.27c0,14.06,11.4,25.45,25.45,25.45s25.45-11.4,25.45-25.45v-15.27c0-14.06-11.4-25.45-25.45-25.45Zm10.18,40.73c0,5.62-4.56,10.18-10.18,10.18s-10.18-4.56-10.18-10.18v-15.27c0-5.62,4.56-10.18,10.18-10.18s10.18,4.56,10.18,10.18v15.27Z"/>
        </g>
        <path class="cls-1" d="m208.72,85.91c7.72-5.54,12.74-14.6,12.74-24.82,0-16.87-13.68-30.55-30.55-30.55-2.13,0-4.21.22-6.22.63C180.39,13.29,164.29,0,145.09,0c-16.42,0-30.56,9.71-37.01,23.71-4.17-2.14-8.9-3.34-13.9-3.34-16.87,0-30.55,13.68-30.55,30.55,0,7.04,2.38,13.52,6.39,18.69-6.91,4.55-11.48,12.38-11.48,21.27,0,14.06,11.4,25.45,25.45,25.45v.76c0,5.62,4.56,10.18,10.18,10.18h86.55c4.13,0,7.68-2.45,9.28-5.99,1.9.58,3.91.9,6,.9,11.25,0,20.36-9.12,20.36-20.36,0-6.44-2.99-12.17-7.65-15.91Zm-99.26,22.78c-5.62,0-10.18-4.56-10.18-10.18s4.56-10.18,10.18-10.18,10.18,4.56,10.18,10.18-4.58,10.18-10.18,10.18Zm0-27.24c-5.76,0-11.41-1.99-15.91-5.59l6.36-7.95c2.74,2.19,6.04,3.35,9.55,3.35s6.8-1.16,9.54-3.35l6.36,7.95c-4.5,3.6-10.15,5.59-15.91,5.59Zm66.18,17.05c0,5.62-4.56,10.18-10.18,10.18s-10.18-4.56-10.18-10.18v-15.27c0-5.62,4.56-10.18,10.18-10.18s10.18,4.56,10.18,10.18v15.27Zm-.64-34.07c-2.74-2.19-6.04-3.35-9.54-3.35s-6.81,1.16-9.55,3.35l-6.36-7.95c4.5-3.6,10.15-5.58,15.91-5.58s11.41,1.98,15.91,5.58l-6.36,7.95Z"/>
      </g>
    </symbol>
  </defs>
  <use width="280" height="231.64" xlink:href="#logo"/>
</svg>