<?xml version="1.0" encoding="UTF-8"?>
<svg id="Layer_1" data-name="Layer 1" xmlns="http://www.w3.org/2000/svg" xmlns:xlink="http://www.w3.org/1999/xlink" viewBox="0 0 280 81.45">
  <defs>
    <style>
      .cls-1 {
        fill: #fff;
        stroke-width: 0px;
      }
    </style>
    <symbol id="logotipo" viewBox="0 0 280 81.45">
      <g>
        <path class="cls-1" d="m198.55,15.27c-14.06,0-25.45,11.4-25.45,25.45s11.4,25.45,25.45,25.45c3.62,0,7.06-.76,10.18-2.12v17.39h15.27v-40.72h0c0-14.06-11.4-25.46-25.45-25.46Zm0,35.64c-5.62,0-10.18-4.56-10.18-10.18s4.56-10.18,10.18-10.18,10.18,4.56,10.18,10.18-4.58,10.18-10.18,10.18Z"/>
        <path class="cls-1" d="m61.09,15.27h10.18v15.27h-10.18c-2.81,0-5.09,2.28-5.09,5.09v30.55h-15.27v-30.55c0-1.76.22-3.46.64-5.09,2.26-8.78,10.24-15.27,19.72-15.27Z"/>
        <path class="cls-1" d="m167.36,30.55c.42,1.63.64,3.33.64,5.09v30.55h-15.27v-30.55c0-2.81-2.28-5.09-5.09-5.09h-5.09c-2.81,0-5.09,2.28-5.09,5.09v30.55h-15.27v-30.55c0-1.76.22-3.46.64-5.09,1.84-7.15,7.48-12.78,14.63-14.63,1.63-.42,3.33-.64,5.09-.64h5.09c1.76,0,3.46.22,5.09.64,7.16,1.84,12.79,7.48,14.63,14.63Z"/>
        <path class="cls-1" d="m30.55,0h5.09v15.27h-5.09c-2.81,0-5.09,2.28-5.09,5.09v10.18h10.18v15.27h-10.18v20.36h-15.27v-20.36H0v-15.27h10.18v-10.18C10.18,9.12,19.3,0,30.55,0Z"/>
        <path class="cls-1" d="m101.84,15.93c-3.26-.84-3.18-.64-25.45-.64v15.27h21.04c2.49.36,4.41,2.5,4.41,5.09v5.09h-17.82c-4.22,0-7.64,3.42-7.64,7.64,0,11.35-.15,11.09.44,12.73,1.05,2.97,3.87,5.09,7.2,5.09,7.41,0,12.09.59,17.82-2.73v2.73h15.27v-30.55c0-9.52-6.52-17.47-15.27-19.72Zm0,40.09h-10.18v-5.09h10.18v5.09Z"/>
        <path class="cls-1" d="m254.55,0c-14.06,0-25.45,11.4-25.45,25.45v15.27c0,14.06,11.4,25.45,25.45,25.45s25.45-11.4,25.45-25.45v-15.27c0-14.06-11.4-25.45-25.45-25.45Zm10.18,40.73c0,5.62-4.56,10.18-10.18,10.18s-10.18-4.56-10.18-10.18v-15.27c0-5.62,4.56-10.18,10.18-10.18s10.18,4.56,10.18,10.18v15.27Z"/>
      </g>
    </symbol>
  </defs>
  <use width="280" height="81.45" xlink:href="#logotipo"/>
</svg>