<?xml version="1.0" encoding="UTF-8"?>
<svg id="Layer_1" data-name="Layer 1" xmlns="http://www.w3.org/2000/svg" viewBox="0 0 221.25 221.15">
  <defs>
    <style>
      .cls-1 {
        fill: #fff;
        stroke-width: 0px;
      }
    </style>
  </defs>
  <path class="cls-1" d="m56.57,0c35.99,0,71.98,0,107.97,0,.7.13,1.39.3,2.1.38,6.04.66,11.96,2,17.44,4.6,23.75,11.23,36.56,30.04,36.92,56.34.46,32.81.14,65.64.1,98.46-.01,12.72-3.44,24.5-10.83,34.87-12.53,17.58-29.78,26.39-51.36,26.45-32.25.08-64.49.06-96.74-.03-4.15-.01-8.4-.23-12.44-1.12-25.04-5.53-41.05-20.75-47.92-45.47C.92,171.25.59,167.86,0,164.54c0-35.99,0-71.98,0-107.97.36-2.26.6-4.55,1.1-6.77C6.73,24.75,21.9,8.68,46.66,1.81,49.88.91,53.26.59,56.57,0Zm144.94,110.78c0-16.05.01-32.1,0-48.14,0-5.06-.51-10.05-2.22-14.86-6.23-17.51-21.32-28.12-40.31-28.16-32.24-.06-64.48-.11-96.72.08-4.81.03-9.85.7-14.39,2.23-17.68,5.95-28.23,21.27-28.25,40.37-.04,32.17-.1,64.33.09,96.5.03,4.82.68,9.85,2.21,14.4,5.89,17.6,21.16,28.25,40.13,28.29,32.38.08,64.77.06,97.15,0,14.41-.03,26.06-5.79,34.61-17.45,5.51-7.52,7.74-16.09,7.73-25.34-.02-15.98,0-31.95,0-47.93Z"/>
  <path class="cls-1" d="m110.53,167.54c-31.33-.04-57.06-25.81-56.96-57.06.1-31.36,25.91-57.07,57.12-56.9,31.32.17,56.81,25.71,56.85,56.96.03,31.28-25.73,57.05-57.01,57.01Zm37.35-56.9c.11-20.51-16.59-37.29-37.24-37.41-20.51-.11-37.29,16.59-37.41,37.24-.12,20.51,16.59,37.29,37.24,37.41,20.51.12,37.29-16.59,37.41-37.24Z"/>
  <path class="cls-1" d="m169.91,37.01c7.92-.01,14.51,6.58,14.41,14.42-.1,7.84-6.56,14.24-14.37,14.25-7.9,0-14.51-6.6-14.41-14.43.1-7.85,6.53-14.22,14.37-14.23Z"/>
</svg>