<?xml version="1.0" encoding="UTF-8"?>
<svg id="Capa_2" data-name="Capa 2" xmlns="http://www.w3.org/2000/svg" viewBox="0 0 422 536.46">
  <defs>
    <style>
      .cls-1 {
        fill: #fff;
        stroke-width: 0px;
      }
    </style>
  </defs>
  <path class="cls-1" d="m402.94,193.48c-8.23,14.67-17.87,28.57-28.42,41.53,1.13-6.33,10.4-67.83-44.3-114.25-23.53-19.96-30.66-44.92-37.07-67.02-6.42-22.1-28.52-27.8-42.06-12.12-6.72,7.78-13.26,18.54-24.25,20.27-2,.31-3.88.31-5.65.07-8.19-1.12-14.27-7.45-20.92-12.56-5.8-4.45-12.67-10.02-20.47-9.2-13.55,1.43-19.25,17.11-48.48,40.64-29.23,23.53-52.76,52.76-37.79,83.41,14.97,30.66,95.53,47.05,127.62,4.28,32.08-42.78,49.19-46.34,52.04-21.39,19.96-14.26,31.37-24.24,42.78-10.69,11.41,13.55-8.56,29.94-13.55,34.22-4.99,4.28-1.43,18.54,10.69,9.98s21.39-21.39,31.37-5.7c9.98,15.68-4.28,28.52-12.83,34.93-8.56,6.42-6.42,9.27-.71,12.83s16.4-9.98,22.81,0c6.42,9.98,5.43,24.82-8.7,44.14-48.19,46.02-104.3,74.21-133.89,74.21-42.42,0-157.56-72.72-192.49-142.59S-5.58,41.62,79.98,8.83c85.55-32.8,109.08,36.36,131.18,36.36C234.68,45.19,248.23.27,303.84.27c97.68,0,148.29,105.51,99.1,193.21Z"/>
  <g>
    <path class="cls-1" d="m420.47,384.85c-2.5-.36-30.77-2.15-44.37-1.43-13.6.72-31.49-2.5-36.5,0-1.6.8,0,11.81,1.43,13.95.91,1.37,15.82,1.43,29.46,1.48-.09,5.32,0,12.75.23,18.56.36,8.59,2.15,37.21-.36,47.95-2.5,10.73-5.37,62.98-3.94,66.2,1.43,3.22,16.46,3.22,18.96,1.79,2.5-1.43,1.43-30.77,1.43-40.08s3.22-28.27,3.58-37.21c.28-6.93.12-41.61.04-56.84,11.36.76,26.13,2.8,28.23,2.1,2.15-.72,4.29-16.1,1.79-16.46Z"/>
    <path class="cls-1" d="m94.14,395.23c-6.08-13.6-22.54-17.89-39,0-16.46,17.89-23.97,90.53-25.05,101.62-1.07,11.09-4.01,37.69-2.86,38.29,4.47,2.33,18.07,1.61,18.07-2.33,0-2.22,1.36-19.3,3.13-37.19,10.85-5.11,34.52-6.97,46.51-7.6,2.22,21.63,3.83,40.45,5.29,42.46,2.86,3.94,15.03-.36,16.1-2.86,1.07-2.5-3.22-26.48-6.08-62.26-2.86-35.78-10.02-56.54-16.1-70.13Zm-44.35,87.25c1.01-9.23,2.06-17.72,3.03-23.38,3.22-18.96,9.66-52.96,15.03-57.97,5.37-5.01,11.09,1.43,18.61,29.34,2.62,9.73,4.74,24.35,6.51,39.43-12.4,1.5-34.26,9.26-43.17,12.57Z"/>
    <path class="cls-1" d="m208.64,448.9c0-10.73-2.15-50.09-1.43-56.89.72-6.8-2.15-6.8-10.38-7.16s-5.01,7.16-5.01,12.52-2.15,78-2.15,78c0,0-7.87-10.73-10.38-14.31s-41.86-71.56-45.44-74.43c-3.58-2.86-8.95,3.58-9.3,12.17-.24,5.84-1.97,35.96.54,98.94.67,16.87-1.34,28.24-.54,28.8,15.92,11.27,19.86,4.47,20.57,1.97s-.36-44.37-1.07-52.96c-.72-8.59.36-31.49.36-31.49,0,0,26.84,36.14,31.49,41.51,4.65,5.37,8.95,17.53,14.31,25.4-.36,15.74-1.07,19.68,1.07,21.11s16.28,3.76,17.35,1.61c1.07-2.15.72-18.25,0-26.48-.72-8.23,0-47.59,0-58.32Z"/>
    <path class="cls-1" d="m245.85,439.96c0-11.45,5.37-53.31,5.01-55.1s-16.46-1.43-19.68,0c-2.64,1.17-4.29,46.16-4.29,56.89s2.86,76.93,4.29,83.01,12.17,10.02,17.89,9.66,6.08.72,3.58-12.88c-2.5-13.6-6.8-70.13-6.8-81.58Z"/>
    <path class="cls-1" d="m297.74,383.42c-17.89-.72-27.55,1.43-27.55,1.43-1.43,1.79-2.15,26.48-1.79,39.36.36,12.88-1.79,43.3,0,59.4,1.79,16.1,0,46.16,1.79,48.31,1.79,2.15,16.36,1.94,18.61-1.43,1.43-2.15-2.86-17.89-1.79-26.84.44-3.63.52-13.12.41-23.77,5.39.11,12.66-.1,20.24-1.39,9.64,5.92,12.13,17.44,12.44,24.62.36,8.23-1.25,27.02,3.04,28.45,4.29,1.43,15.03,1.79,16.1,0s-.36-6.8-1.43-20.04c-1.07-13.24-2.5-22.18-5.73-30.41-1.23-3.13-4.11-5.74-7.21-7.78,18.18-8.46,15.85-18.53,17.95-26.21,2.15-7.87-.36-35.42-5.73-45.08-5.37-9.66-21.47-17.89-39.36-18.61Zm13.78,78.9c-6.52,3.15-17.28,2.34-24.37,1.3-.24-10.24-.57-19.4-.85-23.31-.68-9.56.26-33.46,1.29-40.59,1.21-.19,2.52-.43,3.9-.73,6.44-1.43,19.32,1.79,27.55,7.51,8.23,5.73,7.87,15.39,8.59,29.7.72,14.31-5.73,21.11-16.1,26.12Z"/>
  </g>
</svg>