# Blender 3.3.1
# www.blender.org
mtllib poster.mtl
o Plane.001
v -2.099842 2.970112 -0.064618
v 2.100158 2.969888 -0.107255
v -2.100158 -2.969888 0.206305
v 2.099842 -2.970112 -0.060144
v -1.049842 2.970056 -0.093739
v 0.000158 2.970000 -0.093712
v 1.050158 2.969944 -0.093461
v 1.049842 -2.970056 -0.041541
v -0.000158 -2.970000 0.021399
v -1.050158 -2.969944 0.138220
v -2.100079 -1.484888 0.159111
v -2.100000 0.000112 0.105459
v -2.099921 1.485112 -0.020224
v 2.100079 1.484888 -0.134724
v 2.100000 -0.000112 -0.156378
v 2.099921 -1.485112 -0.081790
v -1.049921 1.485056 -0.074097
v -1.050000 0.000056 0.044162
v -1.050079 -1.484944 0.092273
v 0.000079 1.485000 -0.095235
v -0.000000 0.000000 -0.042641
v -0.000079 -1.485000 -0.033303
v 1.050079 1.484944 -0.105989
v 1.050000 -0.000056 -0.113113
v 1.049921 -1.485056 -0.058535
v -2.097415 2.972760 -0.050694
v 2.101406 2.968228 -0.093279
v -2.096243 -2.966067 0.220120
v 2.101070 -2.968508 -0.046167
v -1.048318 2.971757 -0.079770
v 0.000623 2.970085 -0.079713
v 1.050937 2.968822 -0.079471
v 1.051746 -2.967771 -0.027591
v 0.004616 -2.966479 0.035162
v -1.044763 -2.966006 0.151918
v -2.096262 -1.480891 0.172927
v -2.096495 0.007074 0.119160
v -2.097057 1.491397 -0.006453
v 2.101759 1.483462 -0.120755
v 2.102029 0.001946 -0.142429
v 2.101506 -1.481643 -0.067859
v -1.047556 1.490101 -0.060246
v -1.045929 0.005895 0.057887
v -1.044914 -1.481338 0.106001
v 0.001688 1.487257 -0.081277
v 0.003604 0.003477 -0.028796
v 0.004512 -1.482002 -0.019511
v 1.051592 1.484555 -0.092008
v 1.052307 0.002112 -0.099175
v 1.052057 -1.481926 -0.044612
vn -0.0348 -0.0255 -0.9991
vn -0.0258 -0.0282 -0.9993
vn -0.0199 -0.0130 -0.9997
vn -0.0309 -0.0186 -0.9993
vn -0.0625 -0.0327 -0.9975
vn -0.0851 -0.0296 -0.9959
vn -0.0893 -0.0325 -0.9955
vn -0.0641 -0.0313 -0.9975
vn -0.0757 -0.0246 -0.9968
vn -0.0784 -0.0289 -0.9965
vn -0.0075 -0.0007 -1.0000
vn -0.0126 0.0091 -0.9999
vn -0.0245 0.0031 -0.9997
vn -0.0262 -0.0185 -0.9995
vn -0.0375 -0.0176 -0.9991
vn -0.0590 -0.0284 -0.9979
vn -0.0248 -0.0138 -0.9996
vn -0.0389 -0.0417 -0.9984
vn -0.0669 -0.0482 -0.9966
vn -0.0395 -0.0215 -0.9990
vn -0.0471 -0.0517 -0.9976
vn -0.0577 -0.0579 -0.9966
vn -0.0202 0.0135 -0.9997
vn -0.0273 0.0116 -0.9996
vn -0.0330 -0.0169 -0.9993
vn 0.0347 0.0255 0.9991
vn 0.0309 0.0186 0.9993
vn 0.0199 0.0130 0.9997
vn 0.0258 0.0282 0.9993
vn 0.0625 0.0327 0.9975
vn 0.0641 0.0313 0.9975
vn 0.0894 0.0325 0.9955
vn 0.0851 0.0296 0.9959
vn 0.0784 0.0289 0.9965
vn 0.0757 0.0246 0.9968
vn 0.0075 0.0007 1.0000
vn 0.0263 0.0185 0.9995
vn 0.0245 -0.0031 0.9997
vn 0.0126 -0.0091 0.9999
vn 0.0591 0.0284 0.9979
vn 0.0375 0.0176 0.9991
vn 0.0248 0.0138 0.9996
vn 0.0389 0.0417 0.9984
vn 0.0669 0.0482 0.9966
vn 0.0395 0.0215 0.9990
vn 0.0471 0.0517 0.9976
vn 0.0578 0.0580 0.9966
vn 0.0273 -0.0116 0.9996
vn 0.0202 -0.0135 0.9997
vn 0.0330 0.0169 0.9993
vn -0.9825 0.0055 0.1859
vn -0.9786 0.0134 0.2054
vn -0.9801 0.0104 0.1981
vn 0.0016 0.9951 0.0989
vn 0.0011 0.9977 0.0670
vn 0.0011 0.9976 0.0690
vn 0.9950 -0.0016 -0.1000
vn 0.9937 -0.0038 -0.1119
vn 0.9933 -0.0044 -0.1155
vn 0.0173 -0.9638 0.2660
vn 0.0216 -0.9653 0.2604
vn 0.0235 -0.9659 0.2580
vn -0.0016 0.9938 -0.1115
vn -0.0038 0.9881 -0.1535
vn -0.0013 0.9944 -0.1061
vn 0.0007 0.9999 -0.0145
vn 0.0007 0.9999 -0.0123
vn 0.0071 -0.9850 0.1721
vn 0.0021 -0.9905 0.1377
vn 0.0065 -0.9857 0.1682
vn 0.0210 -0.9726 0.2314
vn 0.0184 -0.9745 0.2237
vn -0.9652 0.0088 0.2615
vn -0.9636 0.0085 0.2672
vn -0.9657 0.0089 0.2595
vn -0.9706 0.0125 0.2402
vn -0.9729 0.0149 0.2310
vn 0.9931 0.0020 -0.1171
vn 0.9946 0.0020 -0.1040
vn 0.9929 0.0020 -0.1186
vn 0.9916 -0.0027 -0.1293
vn 0.9916 -0.0020 -0.1297
vt 1.000000 1.000000
vt 0.000000 1.000000
vt 0.000000 1.000000
vt 1.000000 1.000000
vt 1.000000 0.000000
vt 0.000000 0.000000
vt 0.000000 0.000000
vt 1.000000 0.000000
vt 0.750000 1.000000
vt 0.250000 1.000000
vt 0.500000 1.000000
vt 0.250000 1.000000
vt 0.750000 1.000000
vt 0.250000 0.000000
vt 0.750000 0.000000
vt 0.500000 0.000000
vt 0.750000 0.000000
vt 0.250000 0.000000
vt 1.000000 0.250000
vt 0.000000 0.250000
vt 1.000000 0.500000
vt 0.000000 0.500000
vt 1.000000 0.750000
vt 0.000000 0.750000
vt 0.000000 0.750000
vt 1.000000 0.750000
vt 0.000000 0.500000
vt 1.000000 0.500000
vt 0.000000 0.250000
vt 1.000000 0.250000
vt 0.750000 0.750000
vt 0.750000 0.500000
vt 0.750000 0.250000
vt 0.500000 0.750000
vt 0.500000 0.500000
vt 0.500000 0.250000
vt 0.250000 0.750000
vt 0.250000 0.500000
vt 0.250000 0.250000
vt 0.000000 1.000000
vt 1.000000 1.000000
vt 0.000000 0.000000
vt 1.000000 0.000000
vt 0.250000 1.000000
vt 0.500000 1.000000
vt 0.750000 1.000000
vt 0.750000 0.000000
vt 0.500000 0.000000
vt 0.250000 0.000000
vt 0.000000 0.250000
vt 0.000000 0.500000
vt 0.000000 0.750000
vt 1.000000 0.750000
vt 1.000000 0.500000
vt 1.000000 0.250000
vt 0.250000 0.750000
vt 0.250000 0.500000
vt 0.250000 0.250000
vt 0.500000 0.750000
vt 0.500000 0.500000
vt 0.500000 0.250000
vt 0.750000 0.750000
vt 0.750000 0.500000
vt 0.750000 0.250000
s 1
usemtl Material.003
f 25/39/1 16/29/2 4/7/3 8/14/4
f 11/19/5 19/33/6 10/17/7 3/5/8
f 19/33/6 22/36/9 9/16/10 10/17/7
f 22/36/9 25/39/1 8/14/4 9/16/10
f 6/11/11 7/12/12 23/37/13 20/34/14
f 20/34/14 23/37/13 24/38/15 21/35/16
f 21/35/16 24/38/15 25/39/1 22/36/9
f 5/9/17 6/11/11 20/34/14 17/31/18
f 17/31/18 20/34/14 21/35/16 18/32/19
f 18/32/19 21/35/16 22/36/9 19/33/6
f 1/1/20 5/9/17 17/31/18 13/23/21
f 13/23/21 17/31/18 18/32/19 12/21/22
f 12/21/22 18/32/19 19/33/6 11/19/5
f 7/12/12 2/3/23 14/25/24 23/37/13
f 23/37/13 14/25/24 15/27/25 24/38/15
f 24/38/15 15/27/25 16/29/2 25/39/1
f 50/64/26 33/47/27 29/43/28 41/55/29
f 36/50/30 28/42/31 35/49/32 44/58/33
f 44/58/33 35/49/32 34/48/34 47/61/35
f 47/61/35 34/48/34 33/47/27 50/64/26
f 31/45/36 45/59/37 48/62/38 32/46/39
f 45/59/37 46/60/40 49/63/41 48/62/38
f 46/60/40 47/61/35 50/64/26 49/63/41
f 30/44/42 42/56/43 45/59/37 31/45/36
f 42/56/43 43/57/44 46/60/40 45/59/37
f 43/57/44 44/58/33 47/61/35 46/60/40
f 26/40/45 38/52/46 42/56/43 30/44/42
f 38/52/46 37/51/47 43/57/44 42/56/43
f 37/51/47 36/50/30 44/58/33 43/57/44
f 32/46/39 48/62/38 39/53/48 27/41/49
f 48/62/38 49/63/41 40/54/50 39/53/48
f 49/63/41 50/64/26 41/55/29 40/54/50
usemtl Material.002
f 1/2/51 13/24/52 38/52/53 26/40/51
f 2/4/54 7/13/55 32/46/56 27/41/54
f 4/8/57 16/30/58 41/55/59 29/43/57
f 3/6/60 10/18/61 35/49/62 28/42/60
f 5/10/63 1/2/64 26/40/64 30/44/65
f 6/11/66 5/10/63 30/44/65 31/45/67
f 7/13/55 6/11/66 31/45/67 32/46/56
f 8/15/68 4/8/69 29/43/69 33/47/70
f 9/16/71 8/15/68 33/47/70 34/48/72
f 10/18/61 9/16/71 34/48/72 35/49/62
f 11/20/73 3/6/74 28/42/74 36/50/75
f 12/22/76 11/20/73 36/50/75 37/51/77
f 13/24/52 12/22/76 37/51/77 38/52/53
f 14/26/78 2/4/79 27/41/79 39/53/80
f 15/28/81 14/26/78 39/53/80 40/54/82
f 16/30/58 15/28/81 40/54/82 41/55/59
